#!OML:ASF E:\motion texture\Top Level 1\Subject 1\Session 1\male.ASF
:FULLY-SPECIFIED
:DEGREES
458
root -7.89218 17.8209 4.09853 321.58 -97.153 -316.306
lowerback -3.73734 1.44124 4.195
upperback -2.94772 1.72837 2.11315
thorax -0.876382 0.781424 -0.12754
lowerneck -17.5485 1.26185 -2.35753
upperneck 22.7337 1.6381 2.36176
head 10.1031 0.748064 1.43783
rclavicle -3.13086e-015 2.18663e-014
rhumerus -12.8623 2.62991 -87.4121
rradius 37.9258
rwrist -12.9703
rhand -7.03045 -41.0461
rfingers 7.12502
rthumb 18.8415 -70.1535
lclavicle -3.13086e-015 2.18663e-014
lhumerus -6.75502 4.40953 92.6199
lradius 63.6734
lwrist 19.8618
lhand -7.38829 30.4823
lfingers 7.12502
lthumb 18.4973 59.6229
rfemur -4.47779 3.094 25.4403
rtibia 42.5801
rfoot -0.392257 -10.4756
rtoes -2.99818
lfemur -23.0495 -3.13987 -11.1181
ltibia 16.7256
lfoot -0.225352 6.3228
ltoes -3.94355
459
root -8.04572 17.8297 4.11091 322.552 -96.8451 -317.391
lowerback -3.6853 1.34605 3.86625
upperback -2.91201 1.61692 2.0211
thorax -0.877755 0.732537 -0.0433164
lowerneck -17.5149 1.42754 -2.25304
upperneck 22.7308 1.8513 2.31737
head 10.0913 0.850096 1.43304
rclavicle -1.63997e-014 2.98177e-015
rhumerus -13.7812 1.37313 -87.2952
rradius 36.2484
rwrist -12.0289
rhand -7.40016 -41.2316
rfingers 7.12502
rthumb 18.4859 -70.3732
lclavicle -1.63997e-014 2.98177e-015
lhumerus -6.02599 4.67291 92.5811
lradius 63.4457
lwrist 20.9432
lhand -7.01828 30.5551
lfingers 7.12502
lthumb 18.8532 59.6614
rfemur -5.27975 2.7602 24.9467
rtibia 44.1175
rfoot 0.665054 -10.7119
rtoes -2.18346
lfemur -22.4897 -3.21127 -11.7028
ltibia 16.8262
lfoot -0.260596 6.01914
ltoes -3.49023
460
root -8.1986 17.839 4.12287 323.554 -96.5284 -318.505
lowerback -3.62864 1.24482 3.5368
upperback -2.87661 1.49714 1.93074
thorax -0.881538 0.67929 0.0430236
lowerneck -17.4791 1.59353 -2.14592
upperneck 22.7403 2.06485 2.26815
head 10.084 0.951663 1.42622
rclavicle -7.95139e-016 2.38542e-015
rhumerus -14.7014 0.0349143 -87.1158
rradius 34.579
rwrist -10.9971
rhand -7.76168 -41.4179
rfingers 7.12502
rthumb 18.1381 -70.5922
lclavicle -7.95139e-016 2.38542e-015
lhumerus -5.28248 4.96164 92.5406
lradius 63.1679
lwrist 22.021
lhand -6.62656 30.6079
lfingers 7.12502
lthumb 19.23 59.6772
rfemur -6.11972 2.41759 24.4581
rtibia 45.6371
rfoot 1.67476 -10.9584
rtoes -1.33607
lfemur -21.9085 -3.28892 -12.2857
ltibia 16.8972
lfoot -0.32638 5.71132
ltoes -3.06167
461
root -8.35068 17.8487 4.13435 324.584 -96.2028 -319.644
lowerback -3.5683 1.13729 3.20729
upperback -2.8422 1.36857 1.84277
thorax -0.88782 0.621432 0.131876
lowerneck -17.4421 1.75966 -2.0373
upperneck 22.7621 2.27869 2.21503
head 10.0814 1.05276 1.41791
rclavicle 8.46077e-015 2.18663e-014
rhumerus -15.6241 -1.3871 -86.8663
rradius 32.9258
rwrist -9.8635
rhand -8.11999 -41.5875
rfingers 7.12502
rthumb 17.7934 -70.7935
lclavicle 8.46077e-015 2.18663e-014
lhumerus -4.5253 5.27686 92.4997
lradius 62.8395
lwrist 23.0876
lhand -6.20604 30.6472
lfingers 7.12502
lthumb 19.6343 59.6757
rfemur -6.99716 2.06597 23.9769
rtibia 47.1306
rfoot 2.6194 -11.2122
rtoes -0.486175
lfemur -21.3115 -3.37246 -12.8643
ltibia 16.9408
lfoot -0.423036 5.39932
ltoes -2.65504
462
root -8.5019 17.8586 4.14532 325.647 -95.869 -320.813
lowerback -3.5041 1.02382 2.8788
upperback -2.8089 1.23162 1.75746
thorax -0.896655 0.559161 0.222952
lowerneck -17.406 1.92533 -1.9268
upperneck 22.797 2.49215 2.1574
head 10.0841 1.15301 1.40781
rclavicle -2.01891e-015 -2.127e-014
rhumerus -16.5518 -2.89333 -86.539
rradius 31.2979
rwrist -8.62066
rhand -8.46656 -41.739
rfingers 7.12502
rthumb 17.4599 -70.9749
lclavicle -2.01891e-015 -2.127e-014
lhumerus -3.75625 5.61694 92.4594
lradius 62.4619
lwrist 24.1389
lhand -5.75939 30.6741
lfingers 7.12502
lthumb 20.0636 59.6582
rfemur -7.90883 1.70604 23.5046
rtibia 48.5883
rfoot 3.49221 -11.4713
rtoes 0.361002
lfemur -20.7011 -3.46139 -13.437
ltibia 16.9578
lfoot -0.548067 5.08283
ltoes -2.27031
463
root -8.65221 17.8688 4.15576 326.74 -95.5278 -322.007
lowerback -3.43756 0.90455 2.55302
upperback -2.77697 1.08628 1.67538
thorax -0.907343 0.492474 0.315943
lowerneck -17.3691 2.09029 -1.81491
upperneck 22.8434 2.70494 2.0957
head 10.0913 1.25232 1.39606
rclavicle 2.01269e-015 -1.09332e-014
rhumerus -17.4882 -4.48255 -86.1262
rradius 29.7039
rwrist -7.26285
rhand -8.80029 -41.8641
rfingers 7.12502
rthumb 17.1387 -71.1282
lclavicle 2.01269e-015 -1.09332e-014
lhumerus -2.97629 5.98275 92.4208
lradius 62.0323
lwrist 25.1721
lhand -5.28288 30.7136
lfingers 7.12502
lthumb 20.5216 59.649
rfemur -8.85223 1.3379 23.0433
rtibia 50.0008
rfoot 4.28244 -11.7345
rtoes 1.19983
lfemur -20.0816 -3.55449 -14.0013
ltibia 16.9511
lfoot -0.699959 4.76271
ltoes -1.90552
464
root -8.80151 17.8791 4.1656 327.866 -95.179 -323.228
lowerback -3.36797 0.779499 2.23058
upperback -2.74718 0.93259 1.59676
thorax -0.920945 0.421374 0.410727
lowerneck -17.3319 2.25408 -1.70179
upperneck 22.9017 2.91634 2.03043
head 10.1033 1.35037 1.38283
rclavicle -5.48521e-015 -1.43125e-014
rhumerus -18.4388 -6.15346 -85.6203
rradius 28.1529
rwrist -5.78497
rhand -9.11847 -41.9555
rfingers 7.12502
rthumb 16.8324 -71.2459
lclavicle -5.48521e-015 -1.43125e-014
lhumerus -2.18817 6.37333 92.3849
lradius 61.5516
lwrist 26.1902
lhand -4.79545 30.7408
lfingers 7.12502
lthumb 20.9899 59.625
rfemur -9.82367 0.962298 22.5949
rtibia 51.3583
rfoot 4.98638 -12.0022
rtoes 2.02603
lfemur -19.4562 -3.65108 -14.5557
ltibia 16.9234
lfoot -0.876573 4.44084
ltoes -1.56598
465
root -8.94976 17.8895 4.17483 329.028 -94.8245 -324.479
lowerback -3.29545 0.649264 1.91314
upperback -2.7195 0.771254 1.52244
thorax -0.937244 0.346217 0.507306
lowerneck -17.296 2.41652 -1.58812
upperneck 22.9719 3.12645 1.96148
head 10.1204 1.44713 1.36825
rclavicle 1.40019e-014 4.57205e-015
rhumerus -19.4086 -7.90203 -85.0132
rradius 26.6533
rwrist -4.18613
rhand -9.42047 -42.0099
rfingers 7.12502
rthumb 16.5417 -71.3249
lclavicle 1.40019e-014 4.57205e-015
lhumerus -1.39322 6.78971 92.3534
lradius 61.0223
lwrist 27.1899
lhand -4.29838 30.7564
lfingers 7.12502
lthumb 21.4674 59.5869
rfemur -10.8202 0.58069 22.1615
rtibia 52.6529
rfoot 5.59672 -12.2755
rtoes 2.82563
lfemur -18.8278 -3.75 -15.0973
ltibia 16.8775
lfoot -1.0772 4.12051
ltoes -1.2509
466
root -9.09706 17.8999 4.18344 330.247 -94.466 -325.781
lowerback -3.22153 0.514794 1.6016
upperback -2.69293 0.603448 1.45257
thorax -0.954271 0.267625 0.605381
lowerneck -17.26 2.57662 -1.47603
upperneck 23.0525 3.33389 1.89128
head 10.1417 1.54209 1.35329
rclavicle 5.64051e-015 8.74653e-015
rhumerus -20.4046 -9.72532 -84.2967
rradius 25.2137
rwrist -2.46232
rhand -9.70176 -42.0209
rfingers 7.12502
rthumb 16.2708 -71.3582
lclavicle 5.64051e-015 8.74653e-015
lhumerus -0.595628 7.23066 92.3274
lradius 60.4483
lwrist 28.1576
lhand -3.78596 30.7598
lfingers 7.12502
lthumb 21.9595 59.5334
rfemur -11.8351 0.194824 21.7434
rtibia 53.8745
rfoot 6.11278 -12.5514
rtoes 3.57602
lfemur -18.1948 -3.8524 -15.6253
ltibia 16.8137
lfoot -1.3058 3.8086
ltoes -0.962676
